<svg width="30" height="30" viewBox="0 0 31 32" fill="none" xmlns="http://www.w3.org/2000/svg">
<path fill-rule="evenodd" clip-rule="evenodd" d="M3.50067 3.86757C2.59175 5.07947 2 6.79952 2 8.74195C2 10.6844 2.59175 12.4044 3.50067 13.6163C4.40936 14.8279 5.58837 15.4839 6.80645 15.4839C8.02453 15.4839 9.20354 14.8279 10.1122 13.6163C11.0211 12.4044 11.6129 10.6844 11.6129 8.74195C11.6129 6.79952 11.0211 5.07947 10.1122 3.86757C9.20354 2.65599 8.02453 2.00002 6.80645 2.00002C5.58837 2.00002 4.40936 2.65599 3.50067 3.86757ZM1.90067 2.66757C3.0935 1.07714 4.81771 1.52588e-05 6.80645 1.52588e-05C8.79518 1.52588e-05 10.5194 1.07714 11.7122 2.66757C12.9048 4.25771 13.6129 6.40862 13.6129 8.74195C13.6129 11.0753 12.9048 13.2262 11.7122 14.8163C11.1604 15.5521 10.4948 16.178 9.74193 16.6383V29.0645C9.74193 30.6858 8.42767 32 6.80645 32C5.18522 32 3.87096 30.6858 3.87096 29.0645V16.6383C3.11808 16.178 2.45251 15.5521 1.90067 14.8163C0.70807 13.2262 0 11.0753 0 8.74195C0 6.40862 0.70807 4.25771 1.90067 2.66757ZM5.87096 17.4031V29.0645C5.87096 29.5812 6.28979 30 6.80645 30C7.3231 30 7.74193 29.5812 7.74193 29.0645V17.4031C7.43764 17.4562 7.12545 17.4839 6.80645 17.4839C6.48745 17.4839 6.17525 17.4562 5.87096 17.4031ZM19.0161 1.00002V12.8406C19.0161 14.3905 20.1399 15.4839 21.3341 15.4839H26.311C27.5053 15.4839 28.629 14.3905 28.629 12.8406V1.00002H30.629V12.8406C30.629 15.1633 29.0013 17.2168 26.7581 17.4599V29.0645C26.7581 30.6857 25.4438 32 23.8226 32C22.2014 32 20.8871 30.6857 20.8871 29.0645V17.4599C18.6439 17.2169 17.0161 15.1633 17.0161 12.8406V1.00002H19.0161ZM22.8871 17.4839V29.0645C22.8871 29.5812 23.3059 30 23.8226 30C24.3392 30 24.7581 29.5812 24.7581 29.0645V17.4839H22.8871ZM20.8871 12.6129V1.00002H22.8871V12.6129H20.8871ZM24.7581 12.6129V1.00002H26.7581V12.6129H24.7581Z" fill="black"/>
</svg>
